<?xml version="1.0" encoding="iso-8859-1"?>
<!-- Generator: Adobe Illustrator 19.0.0, SVG Export Plug-In . SVG Version: 6.00 Build 0)  -->
<svg version="1.1" id="Layer_1" xmlns="http://www.w3.org/2000/svg" xmlns:xlink="http://www.w3.org/1999/xlink" x="0px" y="0px"
	 viewBox="0 0 503.611 503.611" style="enable-background:new 0 0 503.611 503.611;" xml:space="preserve">
<g>
	<g>
		<g>
			<path d="M385.988,116.132L369.202,15.41c-0.428-2.56-2.023-4.784-4.306-6.018c-2.3-1.225-5.011-1.335-7.386-0.277l-72.133,32.063
				V8.393c0-4.633-3.76-8.393-8.393-8.393h-50.361c-4.633,0-8.393,3.76-8.393,8.393v32.785L146.096,9.115
				c-2.375-1.066-5.086-0.948-7.386,0.277c-2.283,1.234-3.869,3.458-4.297,6.018l-16.787,100.721
				c-0.529,3.131,0.772,6.295,3.341,8.167l30.359,22.075c-0.101,1.561-0.243,3.122-0.243,4.709v33.574h41.967
				c4.633,0,8.393,3.76,8.393,8.393c0,4.642-3.76,8.393-8.393,8.393h-41.967v16.787h33.574c4.633,0,8.393,3.76,8.393,8.393
				c0,4.642-3.76,8.393-8.393,8.393h-33.574v138.593l14.294,5.716c55.648,20.237,117.214,20.228,173.106-0.092l14.042-5.901v-222.25
				c0-1.586-0.143-3.139-0.235-4.7l30.359-22.083C385.216,122.427,386.509,119.262,385.988,116.132z M218.229,76.011
				c-0.269,0.034-0.529,0.117-0.806,0.151c-3.055,0.369-6.043,0.957-8.973,1.687c-0.655,0.159-1.309,0.319-1.956,0.504
				c-6.538,1.813-12.708,4.474-18.407,7.873c-0.378,0.235-0.755,0.462-1.141,0.697c-5.75,3.567-10.97,7.873-15.561,12.808
				c-0.285,0.302-0.562,0.613-0.839,0.923c-4.541,5.036-8.402,10.677-11.465,16.804c-0.176,0.344-0.336,0.688-0.504,1.041
				c-1.486,3.089-2.82,6.262-3.878,9.569l-19.666-14.294l14.151-84.908l65.637,29.167c1.074,0.478,2.233,0.722,3.408,0.722V76.011z
				 M268.589,50.361v33.574v75.541c0,9.258-7.529,16.787-16.787,16.787c-9.258,0-16.787-7.529-16.787-16.787V83.934V50.361V16.787
				h33.574V50.361z M348.915,128.076c-1.066-3.315-2.401-6.505-3.895-9.602c-0.159-0.336-0.311-0.663-0.478-0.99
				c-3.064-6.144-6.941-11.793-11.491-16.846c-0.269-0.302-0.537-0.596-0.814-0.898c-4.591-4.935-9.829-9.25-15.587-12.817
				c-0.369-0.235-0.747-0.462-1.125-0.688c-5.708-3.408-11.877-6.068-18.415-7.881c-0.646-0.185-1.301-0.344-1.956-0.504
				c-2.929-0.73-5.917-1.318-8.973-1.687c-0.269-0.034-0.529-0.117-0.806-0.151V58.754c1.175,0,2.342-0.243,3.408-0.722
				l65.637-29.167l14.151,84.908L348.915,128.076z"/>
			<path d="M251.69,411.241c-31.299,0-62.556-5.422-92.303-16.241l-8.301-3.315v8.142c0,56.219,44.334,102.778,98.833,103.768
				c0.638,0.008,1.276,0.017,1.914,0.017c26.557,0,51.544-10.206,70.53-28.848c19.448-19.095,30.166-44.62,30.166-71.873v-11.365
				l-7.932,3.332C314.565,405.785,283.098,411.241,251.69,411.241z"/>
		</g>
	</g>
</g>
<g>
</g>
<g>
</g>
<g>
</g>
<g>
</g>
<g>
</g>
<g>
</g>
<g>
</g>
<g>
</g>
<g>
</g>
<g>
</g>
<g>
</g>
<g>
</g>
<g>
</g>
<g>
</g>
<g>
</g>
</svg>
